HIERARCHY
ROOT Hips
{
	OFFSET 0.000000 0.000000 0.000000 
	CHANNELS 6 Xposition Yposition Zposition Zrotation Yrotation Xrotation
	JOINT LeftUpLeg
	{
		OFFSET 1.363060 -1.794630 0.839290 
		CHANNELS 3 Zrotation Yrotation Xrotation
		JOINT LeftLeg
		{
			OFFSET 2.448110 -6.726130 0.000000 
			CHANNELS 3 Zrotation Yrotation Xrotation
			JOINT LeftFoot
			{
				OFFSET 2.562200 -7.039590 0.000000 
				CHANNELS 3 Zrotation Yrotation Xrotation
				JOINT LeftToeBase
				{
					OFFSET 0.157640 -0.433110 2.322550 
					CHANNELS 3 Zrotation Yrotation Xrotation
					End Site
					{
						OFFSET 0.000000 0.000000 0.000000 
					}
				}
			}
		}
	}
	JOINT RightUpLeg
	{
		OFFSET -1.305520 -1.794630 0.839290 
		CHANNELS 3 Zrotation Yrotation Xrotation
		JOINT RightLeg
		{
			OFFSET -2.542530 -6.985550 0.000000 
			CHANNELS 3 Zrotation Yrotation Xrotation
			JOINT RightFoot
			{
				OFFSET -2.568260 -7.056230 0.000000 
				CHANNELS 3 Zrotation Yrotation Xrotation
				JOINT RightToeBase
				{
					OFFSET -0.164730 -0.452590 2.363150 
					CHANNELS 3 Zrotation Yrotation Xrotation
					End Site
					{
						OFFSET 0.000000 0.000000 0.000000 
					}
				}
			}
		}
	}
	JOINT Spine
	{
		OFFSET 0.028270 2.035590 -0.193380 
		CHANNELS 3 Zrotation Yrotation Xrotation
		JOINT Spine1
		{
			OFFSET 0.056720 2.048850 -0.042750 
			CHANNELS 3 Zrotation Yrotation Xrotation
			JOINT Neck1
			{
				OFFSET -0.054170 1.746240 0.172020 
				CHANNELS 3 Zrotation Yrotation Xrotation
				JOINT Head
				{
					OFFSET 0.104070 1.761360 -0.123970 
					CHANNELS 3 Zrotation Yrotation Xrotation
					End Site
					{
						OFFSET 0.000000 0.000000 0.000000 
					}
				}
			}
			JOINT LeftArm
			{
				OFFSET 3.362410 1.200890 -0.311210 
				CHANNELS 3 Zrotation Yrotation Xrotation
				JOINT LeftForeArm
				{
					OFFSET 4.983000 -0.000000 -0.000000 
					CHANNELS 3 Zrotation Yrotation Xrotation
					JOINT LeftHand
					{
						OFFSET 3.483560 -0.000000 -0.000000 
						CHANNELS 3 Zrotation Yrotation Xrotation
						JOINT LeftHandIndex1
						{
							OFFSET 0.715260 -0.000000 -0.000000 
							CHANNELS 3 Zrotation Yrotation Xrotation
							End Site
							{
								OFFSET 0.000000 0.000000 0.000000 
							}
						}
					}
				}
			}
			JOINT RightArm
			{
				OFFSET -3.136600 1.374050 -0.404650 
				CHANNELS 3 Zrotation Yrotation Xrotation
				JOINT RightForeArm
				{
					OFFSET -5.241900 -0.000000 -0.000000 
					CHANNELS 3 Zrotation Yrotation Xrotation
					JOINT RightHand
					{
						OFFSET -3.444170 -0.000000 -0.000000 
						CHANNELS 3 Zrotation Yrotation Xrotation
						JOINT RightHandIndex1
						{
							OFFSET -0.622530 -0.000000 -0.000000 
							CHANNELS 3 Zrotation Yrotation Xrotation
							End Site
							{
								OFFSET 0.000000 0.000000 0.000000 
							}
						}
					}
				}
			}
		}
	}
}
MOTION
Frames: 17
Frame Time: 0.041667
0.354023 18.060038 -6.088340 1.753068 7.260308 4.278324 -8.567159 -2.664962 -2.384225 2.386553 11.707199 31.241390 -4.071556 19.490357 7.562963 0.811700 -5.749200 -16.058400 8.940553 -2.139730 -21.362004 -1.499990 -9.532045 25.306161 3.667410 -16.307745 0.502173 -0.090000 1.935000 -5.325900 5.309441 0.151905 1.500259 4.995093 -0.062732 -3.639955 -5.875021 0.791307 22.276628 -5.919100 -0.011500 15.361400 -41.282273 -3.768970 -28.372887 25.583288 -35.839716 -7.295477 0.500772 0.544842 -8.947178 -7.125000 0.000000 0.000000 52.572061 7.817179 -37.171608 -13.772117 21.260244 -2.590776 -0.147554 -0.401356 9.795208 7.125000 0.000000 0.000000 
0.321234 18.065900 -6.015806 1.781303 7.109983 4.233100 -8.478312 -2.559596 -2.696233 2.581850 11.955127 32.062657 -3.967783 19.355895 8.270151 0.800100 -5.709200 -15.943100 9.082026 -2.213857 -21.166969 -1.503931 -9.546771 25.362489 3.619255 -16.138476 0.481708 -0.081300 1.839400 -5.062100 5.369389 0.184020 1.489049 4.955182 -0.044697 -3.674638 -6.053454 0.913950 22.299167 -5.989600 0.017500 15.402300 -41.273193 -3.776584 -28.440780 25.559840 -35.815402 -7.283329 0.501419 0.544265 -8.900031 -7.125000 0.000000 0.000000 52.950466 7.906012 -37.343756 -13.863706 21.397623 -2.626973 -0.148206 -0.401284 9.897413 7.125000 0.000000 0.000000 
0.290134 18.070471 -5.943968 1.803825 6.960225 4.174523 -8.387833 -2.459358 -2.977813 2.776409 12.193474 32.857500 -3.858184 19.233282 9.033769 0.791200 -5.678000 -15.853000 9.223962 -2.306423 -20.971542 -1.509980 -9.565649 25.430562 3.567824 -15.959349 0.472508 -0.073000 1.742700 -4.795000 5.431701 0.210650 1.480619 4.917545 -0.030018 -3.713763 -6.222244 1.033544 22.331005 -6.056000 0.046800 15.447100 -41.293000 -3.747965 -28.485716 25.544794 -35.799210 -7.275649 0.501515 0.544373 -8.845152 -7.125000 0.000000 0.000000 53.296967 8.013567 -37.565848 -13.949514 21.526072 -2.661100 -0.149739 -0.400241 10.148488 7.125000 0.000000 0.000000 
0.260425 18.074048 -5.872826 1.794143 6.791754 4.100322 -8.266895 -2.354502 -3.228441 2.970110 12.420990 33.620880 -3.744942 19.136549 9.862437 0.784700 -5.655100 -15.786800 9.393606 -2.375697 -20.765847 -1.516965 -9.588387 25.508478 3.517851 -15.785800 0.456068 -0.064200 1.634800 -4.497300 5.503726 0.239940 1.471366 4.876355 -0.014462 -3.765896 -6.359596 1.139582 22.344735 -6.100000 0.070000 15.470100 -41.338279 -3.682761 -28.517199 25.532084 -35.784558 -7.268956 0.501196 0.544034 -8.791362 -7.125000 0.000000 0.000000 53.617412 8.136754 -37.787739 -14.023360 21.637122 -2.690882 -0.152029 -0.398160 10.532505 7.125000 0.000000 0.000000 
0.232604 18.076631 -5.801684 1.785693 6.606748 4.015099 -8.154163 -2.250251 -3.437002 3.159934 12.635597 34.341440 -3.630538 19.087208 10.765711 0.791800 -5.680000 -15.858600 9.552700 -2.438788 -20.552382 -1.525617 -9.615135 25.597764 3.463901 -15.597939 0.438098 -0.055000 1.513800 -4.163800 5.572883 0.269151 1.466599 4.831828 0.000719 -3.814794 -6.512429 1.258887 22.361716 -6.155400 0.101000 15.497500 -41.401265 -3.593113 -28.534543 25.525614 -35.776045 -7.265664 0.500504 0.544806 -8.735969 -7.125000 0.000000 0.000000 53.928597 8.266641 -37.936652 -14.087643 21.735396 -2.717060 -0.154618 -0.395477 10.974825 7.125000 0.000000 0.000000 
0.206472 18.078320 -5.730641 1.778930 6.402926 3.929692 -8.046615 -2.145603 -3.613935 3.344639 12.836033 35.012671 -3.514548 19.094659 11.754939 0.809700 -5.742600 -16.039300 9.701253 -2.483893 -20.338921 -1.535691 -9.644890 25.695704 3.408023 -15.403257 0.424453 -0.045500 1.376400 -3.785000 5.639350 0.301212 1.468182 4.782284 0.016238 -3.846981 -6.637378 1.361904 22.390777 -6.194400 0.127300 15.518600 -41.481519 -3.503964 -28.552157 25.516399 -35.765404 -7.261554 0.500115 0.546140 -8.723757 -7.125000 0.000000 0.000000 54.233462 8.411155 -38.014577 -14.134149 21.809149 -2.736951 -0.157557 -0.392259 11.439829 7.125000 0.000000 0.000000 
0.181830 18.079612 -5.659101 1.788990 6.178355 3.853221 -7.958306 -2.042968 -3.763884 3.520821 13.019933 35.624081 -3.396589 19.159338 12.817484 0.835200 -5.830100 -16.292200 9.822844 -2.502907 -20.129055 -1.547781 -9.678238 25.804682 3.351446 -15.204735 0.409380 -0.036400 1.231600 -3.386200 5.699288 0.335791 1.467811 4.735204 0.032360 -3.874102 -6.735296 1.460907 22.455048 -6.219900 0.153500 15.564600 -41.577224 -3.402136 -28.558108 25.506222 -35.753580 -7.257299 0.500188 0.547352 -8.735500 -7.125000 0.000000 0.000000 54.539897 8.532852 -37.908530 -14.170811 21.869861 -2.752507 -0.159873 -0.389176 11.830567 7.125000 0.000000 0.000000 
0.158580 18.080407 -5.587660 1.813736 5.934723 3.790193 -7.882720 -1.934290 -3.896962 3.686335 13.186013 36.174637 -3.273510 19.257493 13.921326 0.871500 -5.952200 -16.645700 9.921628 -2.496017 -19.930783 -1.561518 -9.714658 25.923084 3.293725 -15.001367 0.398978 -0.028600 1.091700 -3.001100 5.756104 0.378176 1.467072 4.688007 0.053037 -3.891286 -6.895660 1.589537 22.462441 -6.278100 0.188800 15.584200 -41.691649 -3.314100 -28.572481 25.483603 -35.728527 -7.246548 0.500606 0.547807 -8.766949 -7.125000 0.000000 0.000000 54.845148 8.648044 -37.650748 -14.193968 21.912687 -2.763135 -0.161272 -0.386916 12.090132 7.125000 0.000000 0.000000 
0.137118 18.080904 -5.515624 1.873544 5.678642 3.739840 -7.844397 -1.827102 -4.007213 3.837255 13.333506 36.660894 -3.144032 19.364641 15.023787 0.916700 -6.100300 -17.075800 9.974729 -2.487391 -19.745017 -1.577408 -9.753990 26.051855 3.230623 -14.775963 0.388861 -0.022900 0.976200 -2.683400 5.804561 0.423234 1.464699 4.643348 0.075882 -3.898836 -7.089419 1.738072 22.428273 -6.350800 0.229900 15.581600 -41.831589 -3.209338 -28.549630 25.467600 -35.709151 -7.238959 0.500463 0.547423 -8.828965 -7.125000 0.000000 0.000000 55.150635 8.749938 -37.236218 -14.208177 21.944001 -2.770409 -0.161533 -0.385820 12.158951 7.125000 0.000000 0.000000 
0.117246 18.080804 -5.443488 1.944848 5.407079 3.701110 -7.816729 -1.719668 -4.102159 3.972033 13.462135 37.086871 -3.004192 19.439328 16.090848 0.966500 -6.259200 -17.538300 10.007982 -2.451549 -19.568541 -1.595099 -9.796703 26.191416 3.167470 -14.547138 0.361865 -0.019400 0.898500 -2.469600 5.855614 0.472727 1.464277 4.603416 0.101385 -3.895467 -7.333183 1.916896 22.353552 -6.445100 0.278500 15.564400 -42.002384 -3.120268 -28.551125 25.437242 -35.674829 -7.223738 0.500021 0.546467 -8.863753 -7.125000 0.000000 0.000000 55.451954 8.842832 -36.672280 -14.220520 21.973532 -2.776864 -0.160501 -0.386042 12.052190 7.125000 0.000000 0.000000 
0.098765 18.079910 -5.370855 2.030451 5.130505 3.665077 -7.804443 -1.620673 -4.167566 4.087653 13.571867 37.454251 -2.848256 19.438615 17.102621 1.021900 -6.430900 -18.040000 10.019055 -2.397221 -19.389709 -1.614715 -9.843057 26.342280 3.106421 -14.321507 0.303942 -0.018100 0.867500 -2.384400 5.909704 0.523028 1.469582 4.570965 0.127557 -3.875708 -7.621388 2.125870 22.254225 -6.558600 0.336500 15.539100 -42.205640 -3.036781 -28.546499 25.405466 -35.639078 -7.208107 0.499102 0.546143 -8.890932 -7.125000 0.000000 0.000000 55.753011 8.932675 -36.037200 -14.232240 22.002673 -2.782839 -0.158683 -0.386973 11.841210 7.125000 0.000000 0.000000 
0.081675 18.078320 -5.298023 2.119642 4.852118 3.633901 -7.796875 -1.543693 -4.205403 4.183898 13.663836 37.768123 -2.679114 19.351913 18.041007 1.075000 -6.590600 -18.507900 10.019825 -2.311930 -19.209767 -1.636738 -9.893472 26.505942 3.052715 -14.116700 0.201805 -0.018300 0.874400 -2.403200 5.969130 0.577188 1.469872 4.543832 0.155512 -3.857613 -7.886437 2.325439 22.167261 -6.652800 0.388300 15.516600 -42.437488 -2.961955 -28.526859 25.369118 -35.598624 -7.190249 0.498102 0.545066 -8.917888 -7.125000 0.000000 0.000000 56.050937 9.031403 -35.467400 -14.231697 22.014216 -2.783897 -0.156970 -0.387383 11.671143 7.125000 0.000000 0.000000 
0.065479 18.076333 -5.225390 2.216754 4.575830 3.610063 -7.797773 -1.492278 -4.220256 4.262254 13.739541 38.029451 -2.490187 19.190205 18.973358 1.105200 -6.679600 -18.769600 10.006431 -2.190478 -19.028902 -1.661442 -9.947890 26.682023 3.010989 -13.949805 0.051948 -0.019800 0.907600 -2.494600 6.031497 0.632554 1.466252 4.526594 0.183680 -3.840097 -8.145708 2.523764 22.127029 -6.746700 0.441700 15.522300 -42.683666 -2.912490 -28.516009 25.316989 -35.542334 -7.164569 0.497184 0.544408 -8.918521 -7.125000 0.000000 0.000000 56.350293 9.155133 -35.003735 -14.215978 22.004350 -2.779410 -0.155862 -0.386976 11.578620 7.125000 0.000000 0.000000 
0.050376 18.073948 -5.152956 2.336887 4.308465 3.591640 -7.825748 -1.474813 -4.206339 4.323884 13.801412 38.245189 -2.284025 18.960405 19.897298 1.133700 -6.762300 -19.013000 9.962811 -2.042675 -18.847105 -1.689500 -10.006323 26.869787 2.983904 -13.832261 -0.135067 -0.022000 0.957100 -2.630800 6.090584 0.688751 1.460422 4.519404 0.212216 -3.818723 -8.390770 2.705159 22.123969 -6.836700 0.490100 15.546200 -42.934721 -2.901677 -28.509058 25.247150 -35.468518 -7.130098 0.497094 0.543389 -8.898265 -7.125000 0.000000 0.000000 56.651374 9.300056 -34.673289 -14.185516 21.973678 -2.769792 -0.155555 -0.385760 11.550828 7.125000 0.000000 0.000000 
0.035969 18.071961 -5.080820 2.477698 4.053459 3.581680 -7.876440 -1.492803 -4.169418 4.370102 13.850500 38.418406 -2.062057 18.672688 20.822973 1.137400 -6.773100 -19.044800 9.894098 -1.868976 -18.666600 -1.720780 -10.067746 27.066078 2.975275 -13.779079 -0.355630 -0.024600 1.013300 -2.785300 6.146211 0.745987 1.449882 4.522838 0.241470 -3.800064 -8.609112 2.866162 22.132941 -6.915600 0.531700 15.575500 -43.184858 -2.905979 -28.469412 25.180226 -35.398139 -7.097736 0.497086 0.542867 -8.915916 -7.125000 0.000000 0.000000 56.952302 9.448022 -34.430535 -14.148981 21.933897 -2.758481 -0.155655 -0.384506 11.543929 7.125000 0.000000 0.000000 
0.021760 18.070173 -5.009380 2.625728 3.807370 3.576747 -7.932397 -1.535302 -4.113852 4.402706 13.888479 38.555860 -1.825990 18.327322 21.745753 1.124300 -6.735300 -18.933600 9.817058 -1.650565 -18.479989 -1.754675 -10.131905 27.268278 2.989862 -13.809160 -0.604249 -0.027500 1.070800 -2.943500 6.201589 0.801418 1.426854 4.537789 0.270414 -3.799030 -8.829464 3.025455 22.147906 -6.999900 0.575700 15.606600 -43.424883 -2.918709 -28.433608 25.103528 -35.316627 -7.059650 0.497180 0.540633 -8.903249 -7.125000 0.000000 0.000000 57.251295 9.572054 -34.181683 -14.114952 21.897666 -2.748888 -0.155795 -0.383914 11.486415 7.125000 0.000000 0.000000 
0.008247 18.068881 -4.937840 2.796596 3.573575 3.569931 -8.014634 -1.596018 -4.031072 4.422957 13.917271 38.663227 -1.584140 17.941374 22.640468 1.098600 -6.660200 -18.712600 9.713595 -1.412358 -18.275965 -1.790238 -10.196571 27.470307 3.021374 -13.900237 -0.876563 -0.030500 1.126600 -3.097100 6.248237 0.855516 1.394642 4.558781 0.299117 -3.811067 -9.018929 3.161277 22.169438 -7.069300 0.613200 15.628600 -43.650099 -2.926214 -28.339578 25.039811 -35.248241 -7.028360 0.497311 0.538444 -8.899579 -7.125000 0.000000 0.000000 57.547510 9.672382 -33.981795 -14.080583 21.860131 -2.739283 -0.155980 -0.383547 11.417315 7.125000 0.000000 0.000000 
